# xmcd CD database file
#
# Track frame offsets:
#	150
#	22434
#	49505
#	63299
#	84145
#	129385
#	142802
#	159008
#	173407
#	187596
#	222369
#	260282
#	274388
#
# Disc length: 4228 seconds
#
# Revision: 0
# Processed by: cddbd v1.5.2PL0 Copyright (c) Steve Scherf et al.
# Submitted via: CDex 1.70beta2
#
DISCID=a110820d
DTITLE=GOLGO JAZZ - BIG BAND 13
DYEAR=20081008
DGENRE=Jazz
TTITLE0=A night in Tunisia
TTITLE1=Sing sing sing
TTITLE2=You and the night and the music
TTITLE3=Moonlight serenade
TTITLE4=Summertime
TTITLE5=Charade
TTITLE6=Take the "A" train
TTITLE7=Goldfinger
TTITLE8=Fly me to the moon
TTITLE9=Caravan
TTITLE10=The sidewinder
TTITLE11=Besame mucho
TTITLE12=Cherokee
EXTD=YEAR: 20081008
EXTT0=
EXTT1=
EXTT2=
EXTT3=
EXTT4=
EXTT5=
EXTT6=
EXTT7=
EXTT8=
EXTT9=
EXTT10=
EXTT11=
EXTT12=
PLAYORDER=
